# xmcd
#
# Track frame offsets: 
#        150
#        15697
#        27061
#        44392
#        58874
#        70882
#        82726
#        99629
#        114061
#        128122
#        154774
#
# Disc length: 2430 seconds
#
# Revision: 0
# Processed by: cddbd v1.5.2PL0 Copyright (c) Steve Scherf et al.
# Submitted via: ExactAudioCopy v0.99pb5
#
DISCID=80097c0b
DTITLE=HOBO`T&Co - LIVE
DYEAR=2009
DGENRE=Blues - Rockabilly - Swing
TTITLE0=Riders
TTITLE1=Сумочка
TTITLE2=Уходи
TTITLE3=Девять жизней
TTITLE4=Эрегированный
TTITLE5=Битник
TTITLE6=Ч.С.Б.К.
TTITLE7=Кончилось Лето
TTITLE8=Зуг-Диди Blues
TTITLE9=Как Окно
TTITLE10=Напишем Стих
EXTD=
EXTT0=
EXTT1=
EXTT2=
EXTT3=
EXTT4=
EXTT5=
EXTT6=
EXTT7=
EXTT8=
EXTT9=
EXTT10=
PLAYORDER=
